<?xml version="1.0" encoding="UTF-8" standalone="no"?>
<svg
   id="svg4"
   version="1.1"
   viewBox="0 0 36 36"
   xmlns="http://www.w3.org/2000/svg"
   xmlns:svg="http://www.w3.org/2000/svg">
  <path
     id="path905"
     class="color"
     d="M 18,0 A 18,18 0 0 0 0,18 18,18 0 0 0 18,36 18,18 0 0 0 36,18 18,18 0 0 0 18,0 Z m -7.293,9.293 7.293,7.293 7.293,-7.293 1.4141,1.4141 -7.293,7.293 7.293,7.293 -1.4141,1.4141 -7.293,-7.293 -7.293,7.293 -1.4141,-1.4141 7.293,-7.293 -7.293,-7.293 z"
     fill="#ffffff"
     stroke-width="2.25" />
  <path
     id="path905-3"
     class="error"
     d="M 18,0 A 18,18 0 0 0 0,18 18,18 0 0 0 18,36 18,18 0 0 0 36,18 18,18 0 0 0 18,0 Z m -7.293,9.293 7.293,7.293 7.293,-7.293 1.4141,1.4141 -7.293,7.293 7.293,7.293 -1.4141,1.4141 -7.293,-7.293 -7.293,7.293 -1.4141,-1.4141 7.293,-7.293 -7.293,-7.293 z"
     fill="#ff0404"
     opacity="0.5"
     stroke-width="2.25" />
</svg>
